<svg id="Layer_1" data-name="Layer 1" xmlns="http://www.w3.org/2000/svg" viewBox="0 0 72.59 54.97"><defs><style>.cls-1{fill:none;}.cls-2{fill:#ef426f;}.cls-3{fill:#00b2a9;}.cls-4{fill:#ff8200;}</style></defs><title>name-logo-fiesta</title><path class="cls-1" d="M60.62,35.05c-5.91,0-10.23,3.82-10.23,9.51s4.32,9.5,10.23,9.5,10.15-3.81,10.15-9.5S66.52,35.05,60.62,35.05Z" transform="translate(-9.27 -24.72)"/><path class="cls-2" d="M52.7,26.58l.79-1.86H42.68L31.6,51.08,20.87,24.72H9.27L25.55,63.46H37.14l4.11-9.74A19.1,19.1,0,0,1,39,44.56,18,18,0,0,1,52.7,26.58Z" transform="translate(-9.27 -24.72)"/><path class="cls-3" d="M71.2,26.41v5c-3-3.74-7.41-5.54-12.81-5.54a21.65,21.65,0,0,0-5.69.74L41.25,53.72c3.24,6,9.68,9.56,17.14,9.56,5,0,9.28-1.58,12.24-4.82v1.65c0,7-3.46,10.59-11.38,10.59-5,0-10.37-1.73-13.68-4.39L41.1,74.37c4.54,3.53,11.67,5.33,19,5.33,14,0,21.75-6.63,21.75-21V26.41ZM60.62,54.06c-5.91,0-10.23-3.81-10.23-9.5s4.32-9.51,10.23-9.51,10.15,3.82,10.15,9.51S66.52,54.06,60.62,54.06Z" transform="translate(-9.27 -24.72)"/><path class="cls-4" d="M39,44.56a19.1,19.1,0,0,0,2.23,9.16L52.7,26.58A18,18,0,0,0,39,44.56Z" transform="translate(-9.27 -24.72)"/></svg>